<?xml version="1.0" encoding="UTF-8" standalone="no"?>
<!-- Created with Inkscape (http://www.inkscape.org/) -->

<svg
   xmlns:dc="http://purl.org/dc/elements/1.1/"
   xmlns:cc="http://creativecommons.org/ns#"
   xmlns:rdf="http://www.w3.org/1999/02/22-rdf-syntax-ns#"
   xmlns:svg="http://www.w3.org/2000/svg"
   xmlns="http://www.w3.org/2000/svg"
   xmlns:sodipodi="http://sodipodi.sourceforge.net/DTD/sodipodi-0.dtd"
   xmlns:inkscape="http://www.inkscape.org/namespaces/inkscape"
   width="113.22789mm"
   height="110.68341mm"
   viewBox="0 0 113.22789 110.68341"
   version="1.1"
   id="svg1044"
   sodipodi:docname="icon.svg"
   inkscape:version="0.92.5 (2060ec1f9f, 2020-04-08)">
  <defs
     id="defs1038">
    <clipPath
       clipPathUnits="userSpaceOnUse"
       id="clipPath1659">
      <rect
         ry="6.9925594"
         y="71.099945"
         x="55.184525"
         height="110.68341"
         width="113.22789"
         id="rect1661"
         style="fill:#0000ff;fill-opacity:0.84500002;stroke:#000000;stroke-width:2.16499996;stroke-miterlimit:4;stroke-dasharray:none;stroke-opacity:1" />
    </clipPath>
  </defs>
  <sodipodi:namedview
     id="base"
     pagecolor="#ffffff"
     bordercolor="#666666"
     borderopacity="1.0"
     inkscape:pageopacity="0.0"
     inkscape:pageshadow="2"
     inkscape:zoom="1.1813313"
     inkscape:cx="293.22815"
     inkscape:cy="147.3746"
     inkscape:document-units="mm"
     inkscape:current-layer="g1619"
     showgrid="false"
     inkscape:window-width="1848"
     inkscape:window-height="1016"
     inkscape:window-x="72"
     inkscape:window-y="27"
     inkscape:window-maximized="1"
     fit-margin-top="0"
     fit-margin-left="0"
     fit-margin-right="0"
     fit-margin-bottom="0" />
  <metadata
     id="metadata1041">
    <rdf:RDF>
      <cc:Work
         rdf:about="">
        <dc:format>image/svg+xml</dc:format>
        <dc:type
           rdf:resource="http://purl.org/dc/dcmitype/StillImage" />
        <dc:title></dc:title>
      </cc:Work>
    </rdf:RDF>
  </metadata>
  <g
     inkscape:label="Layer 1"
     inkscape:groupmode="layer"
     id="layer1"
     transform="translate(-35.529763,-57.68179)">
    <g
       id="g1619"
       transform="translate(-19.654762,-13.418155)">
      <rect
         style="fill:#ffffff;fill-opacity:1;stroke:none;stroke-width:2.16499996;stroke-miterlimit:4;stroke-dasharray:none;stroke-opacity:1"
         id="rect1684"
         width="113.22789"
         height="110.68341"
         x="55.184525"
         y="71.099945"
         ry="6.9925671"
         inkscape:export-xdpi="100"
         inkscape:export-ydpi="100" />
      <path
         style="fill:#64c3b1;fill-opacity:0.71499999;stroke-width:0.26458332"
         d="M 44.885146,125.32046 V 57.587129 h 67.733334 67.73333 v 67.733331 67.73333 H 112.61848 44.885146 Z m 76.067704,18.92035 c 5.18495,-1.06685 9.93306,-3.19768 12.39083,-5.56069 3.26603,-3.1401 6.79146,-8.67658 6.79146,-10.66559 0,-1.45512 3.30691,-10.0212 9.03561,-23.40549 4.77476,-11.155531 6.53008,-15.532908 6.28854,-15.682186 -0.11946,-0.07383 -2.33634,0.536067 -4.9264,1.355328 -2.59006,0.819261 -5.18546,1.636453 -5.76754,1.815981 -0.58208,0.17953 -2.07037,0.689692 -3.30729,1.133697 -1.23693,0.444003 -5.79107,1.972934 -10.12031,3.397626 -4.32925,1.424688 -7.87136,2.670807 -7.87136,2.769152 0,0.09834 0.92274,0.250299 2.05052,0.33768 2.66662,0.206605 5.32137,1.041802 6.7054,2.109562 1.31554,1.01491 3.01594,3.73079 3.36731,5.37829 0.3463,1.6237 -0.0782,6.88258 -0.73178,9.06441 -0.28926,0.96571 -0.73202,2.58119 -0.98392,3.58997 -0.57156,2.28892 -1.93626,4.37676 -4.24165,6.48924 -2.662,2.43923 -5.95425,3.70881 -9.60546,3.70411 -3.45093,-0.004 -6.94613,-1.56133 -9.57805,-4.26639 -3.07538,-3.16085 -4.12524,-6.26335 -3.83498,-11.33297 0.12443,-2.17336 0.34672,-3.08647 1.64244,-6.74687 2.1712,-6.1336 3.01643,-8.757887 7.28605,-22.621876 1.62783,-5.285762 1.69673,-5.55766 1.40653,-5.550939 -0.12611,0.0029 -2.07475,1.437244 -4.33032,3.187385 -2.25558,1.750142 -4.39621,3.375713 -4.75697,3.61238 -1.03561,0.679383 -6.30254,4.790132 -8.339908,6.509154 -4.000556,3.375448 -5.725493,5.24823 -6.623299,7.190976 -1.906833,4.12617 -2.160375,6.04914 -2.389645,18.12396 -0.195966,10.32094 -0.121888,11.21099 1.17756,14.14861 0.794292,1.79563 3.388257,5.09403 5.009115,6.36943 3.106404,2.44431 7.937567,4.42277 13.145017,5.38316 1.60073,0.29521 3.20807,0.59253 3.57188,0.66072 1.19137,0.22328 5.37995,-0.0532 7.54062,-0.49782 z m -35.586456,-21.3016 c 0.291042,-0.29104 0.529167,-0.70216 0.529167,-0.91359 0,-0.68849 -0.598242,-1.71851 -1.088491,-1.87411 -1.163838,-0.36939 -2.373132,1.21962 -1.782355,2.342 0.587087,1.11537 1.498529,1.28885 2.341679,0.4457 z"
         id="path1633"
         inkscape:connector-curvature="0"
         clip-path="url(#clipPath1659)"
         inkscape:export-xdpi="100"
         inkscape:export-ydpi="100" />
      <path
         style="fill:#be8678;stroke-width:0.26458332"
         d="m 94.711792,178.07695 c -0.08965,-0.23362 -0.02638,-1.01661 0.140597,-1.73998 0.166973,-0.72337 0.303588,-2.11576 0.303588,-3.0942 0,-1.03088 0.133517,-1.9125 0.3175,-2.09648 0.210889,-0.21089 1.360604,-0.3175 3.423967,-0.3175 1.800926,0 3.175706,-0.11203 3.271206,-0.26656 0.23486,-0.38001 0.36164,-7.09785 0.14896,-7.89309 -0.21013,-0.78571 -0.47858,-0.93945 -2.399133,-1.37393 -0.800365,-0.18107 -2.764896,-0.98342 -4.365625,-1.78301 -7.196492,-3.59477 -13.350467,-9.25431 -17.229327,-15.84506 -1.769407,-3.00647 -2.530256,-4.81993 -3.392276,-8.08536 -0.356605,-1.35086 -1.255482,-4.30057 -1.997504,-6.55491 -1.735402,-5.27234 -2.16691,-5.74972 -5.638395,-6.23775 -0.976516,-0.13729 -1.251174,-0.27815 -1.188523,-0.60954 0.0599,-0.31686 0.763038,-0.57112 2.655215,-0.96016 1.415554,-0.29104 2.741988,-0.70776 2.947633,-0.92604 0.205644,-0.21829 0.817297,-1.43979 1.35923,-2.71446 1.482871,-3.48784 4.558779,-7.5992 6.88031,-9.19646 1.397161,-0.96127 4.333835,-1.95914 7.232744,-2.45764 2.266104,-0.3897 2.671223,-0.65052 2.678301,-1.72438 0.0061,-0.91754 1.17983,-4.207987 2.104755,-5.900219 1.079018,-1.974157 3.953787,-4.666324 9.147235,-8.566219 2.32547,-1.746249 5.12684,-3.889374 6.22526,-4.762499 1.09844,-0.873125 2.64671,-2.09177 3.44062,-2.7081 4.854,-3.768271 6.07032,-4.748286 7.20139,-5.802284 1.20082,-1.119012 1.78271,-1.279274 1.78271,-0.490994 0,0.447366 -1.49808,5.674476 -3.03475,10.588878 -0.63704,2.037291 -1.46274,4.83526 -1.83491,6.217708 -0.37216,1.382447 -1.13736,3.88276 -1.70044,5.556249 -1.1997,3.56555 -1.44624,4.49792 -1.18934,4.49792 0.10347,0 1.08801,-0.59024 2.18785,-1.31164 2.61788,-1.717104 4.36529,-2.414464 12.59445,-5.026211 3.77727,-1.198819 8.77276,-2.813573 11.10109,-3.588345 7.87492,-2.620441 18.69391,-5.948806 19.33684,-5.948806 0.39787,0 0.6392,0.153117 0.6392,0.405553 0,0.813366 -3.0812,8.376237 -6.73361,16.527779 -2.08941,4.66319 -4.63297,10.83747 -5.6134,13.62604 -0.88558,2.5188 -3.57014,8.47172 -4.71305,10.45104 l -0.53473,0.92604 -0.0845,-0.73621 c -0.0465,-0.40491 0.1167,-1.35741 0.36266,-2.11666 0.8187,-2.52716 5.32159,-13.71976 8.59192,-21.3565 4.79692,-11.201571 6.56423,-15.606296 6.32183,-15.756106 -0.23296,-0.143981 -7.68519,2.138778 -12.67832,3.883607 -1.67348,0.584795 -3.93567,1.341051 -5.02708,1.680564 -5.27622,1.641332 -14.165,4.716349 -14.2434,4.927415 -0.0485,0.13059 -0.21899,0.237437 -0.37886,0.237437 -0.15986,0 -1.2331,0.254299 -2.38498,0.565103 -4.12526,1.11312 -9.51039,5.44588 -11.25356,9.05438 -0.9632,1.9939 -1.54633,5.59067 -1.27994,7.89469 0.23306,2.01571 1.37075,4.89517 2.55261,6.46053 1.91171,2.53204 5.70577,4.46307 9.37907,4.77358 5.24428,0.4433 10.43798,-3.20741 12.46947,-8.76493 0.56325,-1.54086 1.20876,-2.30654 1.60799,-1.90731 0.29952,0.29951 -0.6488,3.59283 -1.42326,4.94271 -1.05728,1.84285 -4.48301,5.08685 -6.25912,5.92708 -2.78428,1.31717 -6.50801,1.80315 -9.15893,1.19531 -2.43976,-0.55942 -5.06192,-2.06924 -6.93222,-3.99151 -3.07538,-3.16085 -4.12524,-6.26335 -3.83498,-11.33297 0.12443,-2.17336 0.34672,-3.08647 1.64244,-6.74687 2.1712,-6.1336 3.01643,-8.757887 7.28605,-22.621876 1.62783,-5.285762 1.69673,-5.55766 1.40653,-5.550939 -0.12611,0.0029 -2.07475,1.437244 -4.33032,3.187385 -2.25558,1.750142 -4.39621,3.375713 -4.75697,3.61238 -1.03561,0.679383 -6.30254,4.790132 -8.339908,6.509154 -3.23655,2.73082 -5.723922,5.299572 -6.377104,6.585746 -1.819333,3.58241 -2.377175,6.85866 -2.648394,15.55419 -0.342408,10.97783 -0.10699,14.39129 1.195636,17.3361 0.789376,1.78451 3.387352,5.08517 5.003593,6.35694 5.795197,4.56002 16.835517,7.11618 24.125227,5.58571 3.45881,-0.72619 7.40141,-2.13318 9.5173,-3.39645 2.23794,-1.33614 3.72575,-2.73858 6.07499,-5.72641 2.31356,-2.94244 2.5818,-2.87646 1.57572,0.38759 -1.13072,3.66844 -4.7559,11.69562 -6.33239,14.02172 -0.4793,0.70721 -2.0716,2.51757 -3.53844,4.02302 -2.33496,2.39644 -2.98557,2.89776 -5.22619,4.02704 -1.40756,0.70941 -2.63923,1.41932 -2.73704,1.57758 -0.0978,0.15825 -0.19906,4.46655 -0.22501,9.57401 -0.0421,8.2941 -0.0936,9.31559 -0.48192,9.56052 -0.57582,0.36321 -1.27285,-0.20541 -1.27285,-1.03836 0,-0.69675 -1.15158,-4.01517 -1.52186,-4.38546 -0.45508,-0.45508 -0.99298,0.0557 -2.53049,2.40301 -1.69712,2.59095 -2.38207,3.33601 -2.81877,3.06612 -0.38552,-0.23827 -0.0489,-7.06923 0.36188,-7.34311 0.16034,-0.10692 1.50489,-0.19621 2.98789,-0.19844 1.82786,-0.003 2.76042,-0.1077 2.89524,-0.32584 0.22272,-0.36036 0.13732,-9.58386 -0.0943,-10.18751 -0.16899,-0.44039 -0.0794,-0.45531 -4.43895,0.73916 -2.01948,0.55331 -4.08323,0.92473 -5.67053,1.02054 l -2.49554,0.15064 -0.22871,0.79375 c -0.12579,0.43656 -0.20737,3.71078 -0.1813,7.27604 0.0577,7.89163 0.0931,7.40833 -0.54306,7.40833 -0.37329,0 -0.81526,-0.54171 -1.56502,-1.91823 -1.24372,-2.28337 -1.81826,-3.10885 -2.16377,-3.10885 -0.14053,0 -0.690549,0.68461 -1.222253,1.52135 -1.299863,2.0456 -3.238095,4.29948 -3.697343,4.29948 -0.205171,0 -0.446386,-0.19114 -0.536032,-0.42475 z m -9.080815,-54.87316 c 1.066734,-1.06673 0.223819,-3.43958 -1.221853,-3.43958 -0.893228,0 -1.953147,1.11505 -1.953147,2.05475 0,1.64266 2.03122,2.52861 3.175,1.38483 z m 32.014583,4.35613 c -2.33674,-0.64487 -4.26604,-1.73772 -5.74178,-3.25241 -1.92952,-1.98045 -2.49321,-3.25134 -2.40147,-5.41432 0.0624,-1.47053 -0.013,-1.82517 -0.49922,-2.34875 -0.53866,-0.58005 -0.55868,-0.75276 -0.33701,-2.90676 0.33152,-3.22155 1.37483,-5.3511 3.8056,-7.76782 5.52418,-5.49225 11.53352,-7.039872 17.79915,-4.58393 2.2085,0.86566 4.47144,3.76302 4.93513,6.31868 0.21504,1.18523 -0.24248,6.67345 -0.66729,8.00441 -0.17628,0.55229 -0.59385,1.27752 -0.92795,1.61161 -0.33409,0.3341 -0.95075,1.45106 -1.37035,2.48215 -1.42481,3.50115 -3.48545,5.69782 -6.80004,7.2489 -1.53835,0.71988 -2.19421,0.86975 -4.08603,0.93368 -1.42612,0.0482 -2.78783,-0.0713 -3.70874,-0.32544 z"
         id="path1627"
         inkscape:connector-curvature="0"
         inkscape:export-xdpi="100"
         inkscape:export-ydpi="100" />
      <path
         style="fill:#e06d61;stroke-width:0.26458332"
         d="m 95.291872,176.58347 c 0.112236,-0.76398 0.276402,-2.28203 0.364816,-3.37343 l 0.160747,-1.98438 3.073175,0.0957 c 4.06199,0.12645 3.93828,0.28976 3.93828,-5.19901 0,-2.29238 -0.11923,-4.28234 -0.27389,-4.57133 -0.16978,-0.31724 -0.553,-0.51178 -1.00816,-0.51178 -1.37159,0 -8.498621,-3.20022 -9.437514,-4.23768 -0.287147,-0.3173 -1.320294,-1.04308 -2.295879,-1.61286 -2.015421,-1.17706 -5.534348,-4.40054 -7.719229,-7.07112 -2.82476,-3.45269 -5.501227,-8.46815 -6.376593,-11.94917 -0.23786,-0.94588 -0.895718,-3.08901 -1.461907,-4.7625 -0.566188,-1.67348 -1.164522,-3.56552 -1.32963,-4.20452 -0.329789,-1.27634 -1.253138,-2.87624 -2.133081,-3.69604 -0.311271,-0.28999 -1.148191,-0.66693 -1.859821,-0.83765 -0.711631,-0.17072 -1.293874,-0.41759 -1.293874,-0.54859 0,-0.13101 0.04328,-0.23819 0.09618,-0.23819 0.0529,0 0.737508,-0.11943 1.521354,-0.26541 2.667363,-0.49672 2.808423,-0.61735 4.201356,-3.59283 1.878004,-4.01165 4.202451,-7.19061 6.591707,-9.01494 1.28778,-0.9833 4.222951,-1.96699 7.433154,-2.49116 1.091406,-0.17821 2.13619,-0.46254 2.321745,-0.63186 0.185552,-0.16932 0.458695,-1.07452 0.606983,-2.01156 0.163306,-1.03193 0.736886,-2.66888 1.454674,-4.151518 1.373354,-2.836762 2.756,-4.335428 6.861389,-7.437154 1.455206,-1.099447 3.598336,-2.718456 4.762496,-3.597796 1.16417,-0.879343 3.61542,-2.789356 5.44723,-4.244477 1.83181,-1.45512 4.33036,-3.419578 5.55234,-4.365464 1.22198,-0.945885 2.73199,-2.183684 3.35558,-2.750664 0.62359,-0.566981 1.19277,-0.971901 1.26485,-0.899824 0.19227,0.192269 -3.97968,14.296281 -6.51072,22.010629 -0.85427,2.603748 -1.49014,4.836178 -1.41303,4.960938 0.28508,0.46128 1.02201,0.19915 2.3753,-0.84491 2.00743,-1.54872 4.51892,-2.734149 8.44184,-3.98457 1.89586,-0.604301 4.81625,-1.550784 6.48974,-2.103292 1.67348,-0.552511 3.81661,-1.199049 4.76249,-1.436756 0.94589,-0.237705 2.85089,-0.839507 4.23334,-1.337339 1.38245,-0.49783 5.19245,-1.74407 8.46666,-2.769423 3.27422,-1.02535 7.11117,-2.240674 8.52656,-2.700718 1.41539,-0.460045 2.64247,-0.767406 2.72685,-0.683028 0.27879,0.278789 -2.46272,7.036512 -7.00923,17.277496 -1.474,3.32018 -3.17528,7.49499 -5.60667,13.75833 -1.03741,2.67239 -2.9586,6.61588 -3.06607,6.29347 -0.12896,-0.38688 1.79431,-5.5019 5.3509,-14.23097 0.47434,-1.16416 1.52015,-3.60494 2.32404,-5.42395 0.80388,-1.81901 2.2596,-5.212295 3.23493,-7.540628 0.97532,-2.328333 2.1874,-5.212111 2.6935,-6.408393 0.91967,-2.173878 0.95265,-2.719732 0.16433,-2.719732 -0.6368,0 -6.32903,1.752042 -10.92664,3.363161 -2.25557,0.790414 -5.2536,1.773651 -6.6623,2.184974 -1.40869,0.411322 -2.68607,0.824995 -2.83862,0.919274 -0.3501,0.216376 -11.9622,4.127479 -14.44387,4.864878 -2.22858,0.662196 -4.47329,1.987926 -7.13179,4.212026 -3.38701,2.83358 -4.99023,5.78893 -5.45425,10.05432 -0.23909,2.19775 -0.21735,2.87921 0.13526,4.23997 0.96935,3.74087 2.68174,6.36476 5.22756,8.0102 5.27654,3.4104 10.89812,3.25468 15.63041,-0.43295 1.43518,-1.11836 3.32796,-3.83807 4.03522,-5.79815 0.66332,-1.83832 1.02923,-2.13739 0.80928,-0.66145 -0.24579,1.64941 -0.96736,3.03864 -2.6171,5.0387 -2.53809,3.07705 -6.01402,4.89082 -9.95124,5.19265 -3.76664,0.28876 -7.72618,-1.25923 -10.53521,-4.11877 -2.90608,-2.95834 -3.96018,-6.08131 -3.71139,-10.99572 0.10259,-2.02644 0.33471,-3.00071 1.51566,-6.36166 2.58696,-7.36238 5.22977,-15.56359 7.03077,-21.818025 0.68982,-2.395543 1.41619,-4.743203 1.61416,-5.217023 0.48271,-1.155293 0.47813,-2.303368 -0.008,-2.116651 -0.20262,0.07775 -1.66114,1.134087 -3.24115,2.347409 -3.22991,2.480318 -2.79394,2.150407 -8.46509,6.40582 -4.92099,3.692523 -10.604989,8.697743 -11.723579,10.32356 -2.082376,3.02663 -3.116572,7.67347 -3.336829,14.99301 -0.08924,2.96564 -0.208376,5.46669 -0.264745,5.5579 -0.05637,0.0912 -0.699622,-0.12969 -1.429449,-0.49088 -1.779603,-0.88071 -3.291257,-1.01758 -5.178678,-0.46889 -3.334906,0.96948 -4.648962,4.01105 -3.295621,7.62819 0.602739,1.61096 1.289042,2.35992 2.704388,2.95129 2.113664,0.88314 4.119295,0.23817 6.095944,-1.96034 l 1.251125,-1.39156 v 1.98302 c 0,4.12694 1.442138,7.16376 5.199544,10.94907 2.493758,2.51228 6.11059,4.38263 11.08602,5.73284 5.1287,1.39179 6.61792,1.59478 10.40637,1.41843 3.50938,-0.16337 4.72856,-0.41574 9.35665,-1.93684 4.27067,-1.40363 6.45627,-2.97491 10.20366,-7.33565 0.48192,-0.56079 0.94499,-0.95084 1.02906,-0.86677 0.45685,0.45685 -4.3954,11.42749 -6.28805,14.21692 -0.63182,0.9312 -2.21223,2.79298 -3.51201,4.13728 -2.03656,2.10633 -2.70814,2.61422 -4.85826,3.67419 -1.37226,0.6765 -2.66585,1.40082 -2.87463,1.6096 -0.31567,0.31566 -0.37961,1.98082 -0.37961,9.88571 0,7.82587 -0.0634,9.5061 -0.35885,9.5061 -0.22093,0 -0.51842,-0.64657 -0.774,-1.68226 -0.51041,-2.06832 -1.22543,-3.60023 -1.85879,-3.98239 -0.58562,-0.35335 -1.27654,0.3858 -3.18185,3.40397 -0.70329,1.11406 -1.41177,1.98121 -1.57441,1.927 -0.28949,-0.0965 -0.32068,-4.81213 -0.0382,-5.77843 0.0996,-0.34085 0.69822,-0.45845 3.06537,-0.60222 1.61785,-0.0983 3.05927,-0.25141 3.20315,-0.34034 0.29543,-0.18258 0.1107,-10.50436 -0.20165,-11.26773 -0.23097,-0.56447 -0.62734,-0.5776 -2.214,-0.0733 -4.84872,1.54101 -5.99823,1.77989 -8.41603,1.7489 -2.27941,-0.0292 -2.46673,0.009 -2.78556,0.56869 -0.25943,0.45539 -0.33147,2.33782 -0.29888,7.80991 0.0332,5.57684 -0.0312,7.20989 -0.28457,7.20989 -0.18013,0 -0.85978,-0.97254 -1.51033,-2.1612 -0.65055,-1.18865 -1.39304,-2.28998 -1.64996,-2.44739 -0.54005,-0.33088 -0.825401,-0.035 -3.35973,3.48411 -0.864598,1.20055 -1.706891,2.18282 -1.871763,2.18282 -0.211154,0 -0.239443,-0.41064 -0.0957,-1.38907 z m -17.638508,-53.0847 c 0.196221,-0.12435 0.314053,-0.44995 0.261848,-0.72356 -0.08001,-0.41935 -0.378648,-0.50983 -1.901931,-0.57624 -2.196581,-0.0958 -2.956761,0.3027 -2.021824,1.05976 0.625314,0.50635 2.996419,0.66177 3.661907,0.24004 z m 4.934905,4.36102 c -1.059018,-0.46746 -1.623539,-1.14166 -2.1097,-2.51959 -0.614415,-1.74144 -0.529579,-3.98506 0.191855,-5.07384 1.345189,-2.03016 5.405048,-2.87151 7.795976,-1.61561 1.424649,0.74834 1.662494,1.22257 1.662494,3.31481 0,2.15831 -0.957972,4.13935 -2.611565,5.40058 -0.978855,0.7466 -1.338765,0.86332 -2.634525,0.85438 -0.825431,-0.006 -1.857972,-0.16802 -2.294535,-0.36073 z m 3.042708,-4.656 c 1.066734,-1.06673 0.223819,-3.43958 -1.221853,-3.43958 -0.893228,0 -1.953147,1.11505 -1.953147,2.05475 0,1.64266 2.03122,2.52861 3.175,1.38483 z m 32.014583,4.35613 c -2.33674,-0.64487 -4.26604,-1.73772 -5.74178,-3.25241 -1.92952,-1.98045 -2.49321,-3.25134 -2.40147,-5.41432 0.0624,-1.47053 -0.013,-1.82517 -0.49922,-2.34875 -0.53866,-0.58005 -0.55868,-0.75276 -0.33701,-2.90676 0.33152,-3.22155 1.37483,-5.3511 3.8056,-7.76782 5.52418,-5.49225 11.53352,-7.039872 17.79915,-4.58393 2.2085,0.86566 4.47144,3.76302 4.93513,6.31868 0.21504,1.18523 -0.24248,6.67345 -0.66729,8.00441 -0.17628,0.55229 -0.59385,1.27752 -0.92795,1.61161 -0.33409,0.3341 -0.95075,1.45106 -1.37035,2.48215 -1.42481,3.50115 -3.48545,5.69782 -6.80004,7.2489 -1.53835,0.71988 -2.19421,0.86975 -4.08603,0.93368 -1.42612,0.0482 -2.78783,-0.0713 -3.70874,-0.32544 z"
         id="path1625"
         inkscape:connector-curvature="0"
         inkscape:export-xdpi="100"
         inkscape:export-ydpi="100" />
      <path
         style="fill:#01aeba;stroke-width:0.26458332"
         d="m 82.588269,127.85979 c -1.059018,-0.46746 -1.623539,-1.14166 -2.1097,-2.51959 -0.614415,-1.74144 -0.529579,-3.98506 0.191855,-5.07384 1.345189,-2.03016 5.405048,-2.87151 7.795976,-1.61561 1.424649,0.74834 1.662494,1.22257 1.662494,3.31481 0,2.15831 -0.957972,4.13935 -2.611565,5.40058 -0.978855,0.7466 -1.338765,0.86332 -2.634525,0.85438 -0.825431,-0.006 -1.857972,-0.16802 -2.294535,-0.36073 z m 3.042708,-4.656 c 1.066734,-1.06673 0.223819,-3.43958 -1.221853,-3.43958 -0.893228,0 -1.953147,1.11505 -1.953147,2.05475 0,1.64266 2.03122,2.52861 3.175,1.38483 z m 32.014583,4.35613 c -2.33674,-0.64487 -4.26604,-1.73772 -5.74178,-3.25241 -1.92952,-1.98045 -2.49321,-3.25134 -2.40147,-5.41432 0.0624,-1.47053 -0.013,-1.82517 -0.49922,-2.34875 -0.53866,-0.58005 -0.55868,-0.75276 -0.33701,-2.90676 0.33152,-3.22155 1.37483,-5.3511 3.8056,-7.76782 5.52418,-5.49225 11.53352,-7.039872 17.79915,-4.58393 2.2085,0.86566 4.47144,3.76302 4.93513,6.31868 0.21504,1.18523 -0.24248,6.67345 -0.66729,8.00441 -0.17628,0.55229 -0.59385,1.27752 -0.92795,1.61161 -0.33409,0.3341 -0.95075,1.45106 -1.37035,2.48215 -1.42481,3.50115 -3.48545,5.69782 -6.80004,7.2489 -1.53835,0.71988 -2.19421,0.86975 -4.08603,0.93368 -1.42612,0.0482 -2.78783,-0.0713 -3.70874,-0.32544 z"
         id="path1623"
         inkscape:connector-curvature="0"
         inkscape:export-xdpi="100"
         inkscape:export-ydpi="100" />
      <path
         style="fill:#244167;stroke-width:0.26458332"
         d="m 82.588269,127.85979 c -1.059018,-0.46746 -1.623539,-1.14166 -2.1097,-2.51959 -0.614415,-1.74144 -0.529579,-3.98506 0.191855,-5.07384 1.345189,-2.03016 5.405048,-2.87151 7.795976,-1.61561 1.424649,0.74834 1.662494,1.22257 1.662494,3.31481 0,2.15831 -0.957972,4.13935 -2.611565,5.40058 -0.978855,0.7466 -1.338765,0.86332 -2.634525,0.85438 -0.825431,-0.006 -1.857972,-0.16802 -2.294535,-0.36073 z m 3.042708,-4.656 c 1.066734,-1.06673 0.223819,-3.43958 -1.221853,-3.43958 -0.893228,0 -1.953147,1.11505 -1.953147,2.05475 0,1.64266 2.03122,2.52861 3.175,1.38483 z"
         id="path1621"
         inkscape:connector-curvature="0"
         inkscape:export-xdpi="100"
         inkscape:export-ydpi="100" />
      <path
         style="fill:#ffffff;fill-opacity:0.84500002;stroke:none;stroke-width:5.84476948;stroke-miterlimit:4;stroke-dasharray:none;stroke-opacity:1"
         d="m 351.70695,495.36838 c -7.37817,-0.91352 -22.10638,-4.27594 -29.5374,-6.74333 -21.04549,-6.98792 -32.44945,-14.63565 -42.90394,-28.77222 -6.26019,-8.46503 -8.87285,-14.43243 -10.4874,-23.95353 -0.891,-5.25428 -0.82945,-48.44655 0.0946,-66.3857 1.13548,-22.04369 3.08278,-31.52783 8.75253,-42.62835 5.29725,-10.3712 21.0526,-24.7085 56.22446,-51.16399 8.05357,-6.05772 18.01785,-13.59898 22.14285,-16.75836 4.125,-3.15938 8.55879,-6.47807 9.85287,-7.37487 l 2.35286,-1.63053 -0.49258,2.0353 c -1.6822,6.95071 -20.4622,66.6663 -28.53266,90.72657 -6.80112,20.27604 -9.85923,30.43688 -10.42644,34.64286 -0.95934,7.11372 -0.38762,20.07116 1.1293,25.59445 5.30451,19.31431 24.92268,36.02736 44.33094,37.7663 13.95434,1.25027 27.35857,-2.36335 37.34882,-10.0688 5.76985,-4.45027 13.86186,-13.42062 16.3967,-18.17647 2.49302,-4.67738 7.23907,-20.48697 9.18389,-30.59246 0.81788,-4.24976 1.25738,-10.18095 1.29675,-17.5 0.059,-10.97235 0.0397,-11.11297 -2.16175,-15.71428 -3.17344,-6.63298 -8.34445,-13.28213 -12.26193,-15.76703 -4.57179,-2.89994 -13.4518,-5.62294 -21.23105,-6.51039 -10.40928,-1.18749 -10.37632,-1.34609 1.11441,-5.36228 33.27047,-11.62856 106.00176,-35.21744 108.58545,-35.21744 0.28795,0 0.34439,0.72321 0.12542,1.60714 -0.70252,2.836 -10.39116,26.52434 -22.86042,55.89286 -22.28131,52.47858 -33.23049,80.67226 -34.4386,88.67795 -1.92838,12.77874 -18.31588,36.07458 -32.63803,46.39699 -7.94805,5.7284 -23.53167,12.03779 -37.93801,15.3601 -6.10677,1.40831 -26.60709,2.41372 -33.02165,1.61951 z"
         id="path1663"
         inkscape:connector-curvature="0"
         transform="matrix(0.26458333,0,0,0.26458333,19.654762,13.418155)"
         inkscape:export-xdpi="100"
         inkscape:export-ydpi="100" />
    </g>
  </g>
</svg>
